<svg width="77" height="47" fill="none" xmlns="http://www.w3.org/2000/svg"><g clip-path="url(#clip0_901_72)"><path d="M48.91 5.026H28.09v36.948h20.82V5.026z" fill="#FF5F00"/><path d="M29.412 23.5c0-7.507 3.57-14.165 9.055-18.473A23.835 23.835 0 0023.794 0C10.641 0 0 10.51 0 23.5S10.641 47 23.794 47a23.835 23.835 0 0014.673-5.026A23.361 23.361 0 0129.412 23.5z" fill="#EB001B"/><path d="M77 23.5C77 36.49 66.359 47 53.206 47a23.835 23.835 0 01-14.673-5.026c5.552-4.309 9.055-10.967 9.055-18.474s-3.57-14.165-9.055-18.474A23.835 23.835 0 0153.206 0C66.359 0 77 10.575 77 23.5z" fill="#F79E1B"/></g><defs><clipPath id="clip0_901_72"><path fill="#fff" d="M0 0h77v47H0z"/></clipPath></defs></svg>