<svg width="144" height="47" fill="none" xmlns="http://www.w3.org/2000/svg"><g clip-path="url(#clip0_901_79)"><path d="M62.4 46.322H50.735L58.03.825h11.664L62.4 46.322zM104.687 1.937C102.386 1.017 98.737 0 94.224 0c-11.52 0-19.632 6.195-19.681 15.052-.096 6.535 5.808 10.164 10.223 12.343 4.513 2.227 6.047 3.68 6.047 5.665-.046 3.047-3.647 4.453-7.005 4.453-4.657 0-7.153-.725-10.945-2.42l-1.536-.728-1.632 10.214C72.43 45.836 77.47 46.95 82.705 47c12.24 0 20.208-6.1 20.302-15.538.047-5.179-3.07-9.148-9.791-12.39-4.08-2.082-6.579-3.486-6.579-5.616.048-1.936 2.113-3.92 6.719-3.92 3.792-.097 6.578.822 8.689 1.742l1.055.484 1.587-9.825zM120.19 30.204c.961-2.614 4.658-12.73 4.658-12.73-.049.097.958-2.662 1.534-4.356l.816 3.92s2.209 10.891 2.688 13.166h-9.696zM134.589.824h-9.023c-2.782 0-4.896.823-6.096 3.776L102.143 46.32h12.239l2.449-6.825h14.977a1893.77 1893.77 0 011.391 6.825H144L134.589.825zM40.992.825L29.568 31.849l-1.248-6.292c-2.113-7.26-8.736-15.148-16.128-19.07l10.464 39.787H34.99L53.327.824H40.992z" fill="#00579F"/><path d="M18.96.825H.192L0 1.744C14.64 5.52 24.336 14.62 28.32 25.559L24.24 4.65C23.568 1.743 21.504.921 18.96.825z" fill="#FAA61A"/></g><defs><clipPath id="clip0_901_79"><path fill="#fff" d="M0 0h144v47H0z"/></clipPath></defs></svg>